
<svg width="219" height="200" viewBox="0 0 219 200" fill="none" xmlns="http://www.w3.org/2000/svg">
<path d="M218.637 86.7178C217.675 99.7876 212.707 113.7 201.866 126.403C174.615 158.326 138.349 187.343 96.9136 197.351C86.264 199.916 75.1741 200.643 64.2937 199.424C62.6264 199.24 60.9676 199.01 59.3174 198.736C58.193 198.544 57.0387 198.334 55.8716 198.095C34.1492 193.648 7.63435 180.541 1.18306 158.097C-0.779259 151.296 -0.133652 143.716 1.89707 136.192C4.85979 125.267 10.751 114.461 15.9325 106.332C22.9781 95.2418 32.9094 85.8961 44.5251 79.3581C100.432 47.8883 138.674 18.86 192.084 35.0537C212.25 41.1668 217.804 56.8393 218.748 79.1657C218.859 81.6402 218.821 84.1608 218.637 86.7178Z" fill="#4356A3"/>
<path d="M149.387 148.79C148.523 147.921 147.442 147.347 146.488 146.596C145.565 145.868 144.919 144.941 145.018 143.733C145.09 142.869 145.565 141.987 145.74 141.136C146.206 138.881 146.091 136.362 144.821 134.374C141.786 129.62 134.898 131.061 130.546 132.704C123.796 135.253 117.763 139.732 111.911 143.86C108.837 146.027 105.703 148.101 103.022 150.753C101.539 152.224 99.9955 153.426 98.2256 154.539C97.4732 155.014 96.8191 155.516 96.2804 156.144C95.9683 156.07 95.7631 156.861 95.7674 156.875C95.6776 157.031 95.9982 158.312 96.259 157.849C99.474 163.76 105.823 166.434 112.466 165.586C117.148 164.989 121.239 164.224 125.95 165.145C130.136 165.964 134.223 167.169 138.528 166.591C139.02 166.525 139.174 165.864 138.648 165.691C134.625 164.356 128.635 161.619 130.662 156.248C131.85 153.096 135.133 150.473 137.553 148.079C138.913 149.976 140.542 151.642 142.517 152.929C143.714 153.711 145.061 154.235 146.258 155.015C148.429 156.432 148.895 158.519 149.242 160.917C149.306 161.359 149.874 161.294 150.08 161.027C152.82 157.46 152.593 152.027 149.387 148.79Z" fill="#273775"/>
<path d="M88.3206 160.666C85.2468 159.865 81.4204 160.215 78.7185 161.505C78.4748 161.619 78.4662 161.816 78.5817 161.956C78.5432 162.002 78.5133 162.055 78.5176 162.124C78.727 165.878 87.4955 167.453 89.9794 164.03C91.014 162.604 90.3727 161.202 88.3206 160.666Z" fill="#273775"/>
<path d="M120.628 172.046C117.554 171.244 113.727 171.595 111.021 172.885C110.782 172.999 110.773 173.196 110.889 173.336C110.85 173.382 110.82 173.435 110.824 173.504C111.034 177.258 119.798 178.831 122.286 175.41C123.321 173.983 122.68 172.582 120.628 172.046Z" fill="#273775"/>
<path d="M93.6675 176.247C90.5937 175.445 86.763 175.795 84.0611 177.085C83.8217 177.2 83.8132 177.396 83.9243 177.536C83.8858 177.582 83.8602 177.635 83.8645 177.704C84.0697 181.46 92.8381 183.033 95.3263 179.608C96.3609 178.185 95.7196 176.782 93.6675 176.247Z" fill="#273775"/>
<path d="M80.8422 102.002C80.8422 102.002 32.1518 140.61 33.1821 141.87C34.2125 143.13 73.2793 156.764 76.2591 157.451C84.6599 159.389 91.6114 150.806 101.577 143.13C111.547 135.455 125.407 125.488 121.97 119.072C118.532 112.656 80.8422 102.002 80.8422 102.002Z" fill="#273775"/>
<path d="M218.637 86.7174L145.937 139.802L110.431 165.73L95.1004 176.931L88.9953 181.387L64.2933 199.424C62.6259 199.24 60.9671 199.009 59.3169 198.736C58.1925 198.543 57.0382 198.334 55.8711 198.094L83.8737 177.646L85.3486 176.573L102.569 163.999L144.227 133.579L218.748 79.1652C218.859 81.6397 218.821 84.1604 218.637 86.7174Z" fill="white"/>
<path d="M144.822 134.378C144.638 134.084 144.437 133.819 144.228 133.58L102.57 164C104.935 165.21 107.628 165.796 110.432 165.732L145.938 139.803C146.122 137.924 145.848 135.982 144.822 134.378Z" fill="#BCC3E3"/>
<path d="M93.6681 176.243C91.0474 175.565 87.8966 175.712 85.3486 176.573C84.8997 176.72 84.4679 176.894 84.066 177.087C83.8266 177.197 83.818 177.398 83.9249 177.536C83.8992 177.563 83.8822 177.6 83.8736 177.646C83.8608 177.664 83.8608 177.682 83.8608 177.7C83.9719 179.642 86.366 181.011 88.9953 181.387L95.1003 176.931C94.7497 176.628 94.2666 176.399 93.6681 176.243Z" fill="#CAD1F0"/>
<path d="M159.093 59.7266C159.041 59.7266 158.994 59.7193 158.947 59.703L35.676 18.4306C35.4366 18.3498 35.304 18.0903 35.3853 17.8505C35.4665 17.6106 35.7273 17.4832 35.9667 17.561L159.238 58.8335C159.477 58.9143 159.606 59.1738 159.529 59.414C159.465 59.6056 159.285 59.7266 159.093 59.7266Z" fill="#3D3A61"/>
<path d="M159.093 71.3359C159.041 71.3359 158.994 71.3282 158.947 71.312L35.676 30.0396C35.4366 29.9588 35.304 29.6993 35.3853 29.4594C35.4665 29.2196 35.7273 29.0905 35.9667 29.1704L159.238 70.4433C159.477 70.5237 159.606 70.7832 159.529 71.023C159.465 71.215 159.285 71.3359 159.093 71.3359Z" fill="#3D3A61"/>
<path d="M159.093 83.25C159.041 83.25 158.994 83.2423 158.947 83.2265L35.676 41.9536C35.4366 41.8733 35.304 41.6138 35.3853 41.3739C35.4665 41.1337 35.7273 41.0058 35.9667 41.0849L159.238 82.3573C159.477 82.4377 159.606 82.6976 159.529 82.9371C159.465 83.1294 159.285 83.25 159.093 83.25Z" fill="#3D3A61"/>
<path d="M159.093 94.8594C159.041 94.8594 158.994 94.8521 158.947 94.8359L35.676 53.563C35.4366 53.4826 35.304 53.2227 35.3853 52.9829C35.4665 52.743 35.7273 52.6152 35.9667 52.6939L159.238 93.9659C159.477 94.0467 159.606 94.3062 159.529 94.5473C159.465 94.7384 159.285 94.8594 159.093 94.8594Z" fill="#3D3A61"/>
<path d="M159.093 106.773C159.041 106.773 158.994 106.767 158.947 106.75L35.676 65.4771C35.4366 65.3967 35.304 65.1372 35.3853 64.8973C35.4665 64.6571 35.7273 64.5288 35.9667 64.6079L159.238 105.88C159.477 105.961 159.606 106.22 159.529 106.461C159.465 106.653 159.285 106.773 159.093 106.773Z" fill="#3D3A61"/>
<path d="M159.093 118.383C159.041 118.383 158.994 118.376 158.947 118.36L35.676 77.0869C35.4366 77.0061 35.304 76.747 35.3853 76.5067C35.4665 76.2673 35.7273 76.1399 35.9667 76.2177L159.238 117.49C159.477 117.571 159.606 117.83 159.529 118.071C159.465 118.262 159.285 118.383 159.093 118.383Z" fill="#3D3A61"/>
<path d="M145.575 112.885C145.318 112.885 145.117 112.68 145.117 112.426V40.9377C145.117 40.6846 145.318 40.4794 145.575 40.4794C145.827 40.4794 146.032 40.6846 146.032 40.9377V112.426C146.032 112.68 145.827 112.885 145.575 112.885Z" fill="#3D3A61"/>
<path d="M132.591 108.76C132.334 108.76 132.129 108.555 132.129 108.301V36.8127C132.129 36.5596 132.334 36.3544 132.591 36.3544C132.843 36.3544 133.048 36.5596 133.048 36.8127V108.301C133.048 108.555 132.843 108.76 132.591 108.76Z" fill="#3D3A61"/>
<path d="M119.606 104.635C119.35 104.635 119.145 104.43 119.145 104.177V32.6882C119.145 32.4346 119.35 32.2299 119.606 32.2299C119.858 32.2299 120.064 32.4346 120.064 32.6882V104.177C120.064 104.43 119.858 104.635 119.606 104.635Z" fill="#3D3A61"/>
<path d="M106.622 100.512C106.365 100.512 106.16 100.306 106.16 100.053V28.5647C106.16 28.3112 106.365 28.1064 106.622 28.1064C106.874 28.1064 107.079 28.3112 107.079 28.5647V100.053C107.079 100.306 106.874 100.512 106.622 100.512Z" fill="#3D3A61"/>
<path d="M93.6351 96.3867C93.3829 96.3867 93.1777 96.1819 93.1777 95.9288V24.4401C93.1777 24.1866 93.3829 23.9818 93.6351 23.9818C93.8917 23.9818 94.0969 24.1866 94.0969 24.4401V95.9288C94.0969 96.1819 93.8917 96.3867 93.6351 96.3867Z" fill="#3D3A61"/>
<path d="M80.6509 91.6523C80.3986 91.6523 80.1934 91.448 80.1934 91.1949V20.3171C80.1934 20.0636 80.3986 19.8584 80.6509 19.8584C80.9074 19.8584 81.1125 20.0636 81.1125 20.3171V91.1949C81.1125 91.448 80.9074 91.6523 80.6509 91.6523Z" fill="#3D3A61"/>
<path d="M67.6664 87.5273C67.4142 87.5273 67.209 87.3221 67.209 87.0686V16.1908C67.209 15.9377 67.4142 15.7325 67.6664 15.7325C67.9229 15.7325 68.1282 15.9377 68.1282 16.1908V87.0686C68.1282 87.3221 67.9229 87.5273 67.6664 87.5273Z" fill="#3D3A61"/>
<path d="M54.682 83.25C54.4298 83.25 54.2246 83.0452 54.2246 82.7917V12.0669C54.2246 11.8138 54.4298 11.6086 54.682 11.6086C54.9385 11.6086 55.1438 11.8138 55.1438 12.0669V82.7917C55.1438 83.0452 54.9385 83.25 54.682 83.25Z" fill="#3D3A61"/>
<path d="M41.6997 78.8965C41.4474 78.8965 41.2422 78.6917 41.2422 78.4382V7.9426C41.2422 7.68951 41.4474 7.48473 41.6997 7.48473C41.9519 7.48473 42.1571 7.68951 42.1571 7.9426V78.4382C42.1571 78.6917 41.9519 78.8965 41.6997 78.8965Z" fill="#3D3A61"/>
<path d="M158.827 48.1641L35.8203 7.5607L35.893 -0.000427246L160.575 41.0433L158.827 48.1641Z" fill="white"/>
<path d="M137.699 33.5211L35.893 -0.000850677L35.8203 7.56027L125.382 37.1562C128.537 35.3752 137.297 33.6044 137.699 33.5211Z" fill="#CAD1F0"/>
<path d="M159.704 127.359C158.186 127.359 156.955 126.129 156.955 124.61V42.1224C156.955 40.6039 158.186 39.3726 159.704 39.3726C161.222 39.3726 162.453 40.6039 162.453 42.1224V124.61C162.453 126.129 161.222 127.359 159.704 127.359Z" fill="#3D3A61"/>
<path d="M34.3281 135.396C34.264 135.396 34.1956 135.39 34.1315 135.374C33.6355 135.264 33.3234 134.774 33.4346 134.28L44.8536 83.1274C44.9648 82.6327 45.4564 82.3266 45.9481 82.4322C46.4397 82.5425 46.7519 83.032 46.6407 83.5262L35.2259 134.68C35.1276 135.107 34.7514 135.396 34.3281 135.396Z" fill="white"/>
<path d="M116.858 131.443C116.755 131.443 116.653 131.427 116.554 131.391L74.2384 116.574C73.7639 116.407 73.5117 115.884 73.6784 115.407C73.8451 114.929 74.3709 114.674 74.8455 114.845L117.157 129.662C117.636 129.829 117.888 130.352 117.722 130.829C117.589 131.207 117.234 131.443 116.858 131.443Z" fill="white"/>
<path d="M79.3169 68.6619V68.8175C79.3169 69.3032 79.0604 69.7521 78.65 70C76.6321 71.2185 74.6271 72.4467 72.6092 73.666C68.3212 76.2688 64.0288 78.8715 59.7493 81.4742C55.8076 83.8577 51.8658 86.2496 47.9369 88.6416C46.9835 89.2192 46.1114 89.9067 45.1324 90.4381C43.2812 91.4466 38.416 89.0922 38.0569 88.7712C37.4327 88.2214 37.4584 87.6793 37.6978 87.203C37.8346 86.9371 38.0569 86.6896 38.3306 86.4604C39.036 85.8465 40.062 85.3604 40.5964 85.0581C42.0628 84.2057 43.5292 83.3626 45.0041 82.5195C49.1083 80.1455 53.2254 77.7719 57.3381 75.3979C61.1986 73.1709 65.0549 70.944 68.9154 68.7166C70.3562 67.8825 71.8012 67.0484 73.2505 66.2143C73.5882 66.0219 73.9943 65.9762 74.3577 66.0955L78.3465 67.3417C78.5218 67.3968 78.6757 67.4794 78.8039 67.5982C78.821 67.6166 78.8509 67.635 78.868 67.6534C79.0775 67.8457 79.2358 68.0937 79.2828 68.3776C79.2913 68.4049 79.2999 68.4417 79.2999 68.4691C79.317 68.5332 79.3169 68.5973 79.3169 68.6619Z" fill="white"/>
<path d="M79.2994 68.4705L46.5769 87.9834C45.5637 88.5794 44.4265 88.8906 43.2722 88.8906C42.5625 88.8906 41.857 88.7718 41.1816 88.5426L37.6973 87.2045C37.8341 86.9386 38.0564 86.691 38.33 86.4619L41.4937 87.6807C43.0157 88.1942 44.7086 88.0198 46.1109 87.1951L78.8675 67.6548C79.077 67.8472 79.2352 68.0952 79.2823 68.379C79.2908 68.4064 79.2994 68.4432 79.2994 68.4705Z" fill="#2B2945"/>
<path d="M120.047 53.2471L111.394 100.622C111.321 101.035 111.073 101.401 110.727 101.63L83.8101 119.704C81.8178 121.033 79.3253 121.354 77.0723 120.556C71.9934 118.769 62.9471 115.58 59.7663 114.48C55.2132 112.904 50.6687 111.336 46.1113 109.76C44.9185 109.348 40.2372 107.973 39.5232 107.267C39.1171 106.873 38.9717 106.103 39.0999 105.461C39.1641 105.141 39.3008 104.847 39.5146 104.646C39.5659 104.6 39.6215 104.554 39.6771 104.518L67.3035 86.6271C67.6583 86.3979 67.8978 86.0315 67.9704 85.619L76.6064 38.189C76.6491 37.923 76.7431 37.6665 76.85 37.4374C76.9997 37.1441 77.1921 36.8872 77.4187 36.6674C78.1369 35.9889 79.1971 35.6961 80.2146 36.0351L117.178 48.4084C119.205 49.0865 120.423 51.1484 120.047 53.2471Z" fill="#C47333"/>
<path d="M118.148 54.3009L109.252 100.411L83.2668 117.275C81.8944 118.164 80.3169 118.613 78.7308 118.613C77.8244 118.613 76.9053 118.467 76.0289 118.164L39.0996 105.461C39.1637 105.14 39.3005 104.847 39.5143 104.645L76.3195 117.303C78.4914 118.026 80.8385 117.742 82.7709 116.505L108.426 99.852L117.25 54.1269C117.554 52.5686 116.656 51.0107 115.151 50.5067L76.8497 37.4369C76.9993 37.1436 77.1917 36.8867 77.4183 36.667L115.455 49.6358C117.379 50.2959 118.546 52.3027 118.148 54.3009Z" fill="#2B2945"/>
<path d="M110.247 101.275C110.2 101.275 110.149 101.267 110.098 101.25L67.9397 86.7012C67.7003 86.6187 67.5721 86.3579 67.6533 86.1185C67.7388 85.8791 67.9996 85.7517 68.239 85.8351L110.397 100.384C110.636 100.466 110.765 100.728 110.679 100.967C110.615 101.157 110.435 101.275 110.247 101.275Z" fill="#2B2945"/>
<path d="M73.7329 157.625C73.3267 157.625 72.9206 157.556 72.5315 157.418L35.551 144.305C33.2638 143.495 31.9385 141.096 32.4643 138.726L38.83 110.166C38.9412 109.672 39.4329 109.363 39.9246 109.472C40.4162 109.581 40.7283 110.071 40.6171 110.565L34.2556 139.125C33.9264 140.591 34.7473 142.075 36.1666 142.578L73.1429 155.69C73.626 155.862 74.139 155.82 74.5836 155.572C75.0325 155.324 75.3404 154.912 75.4515 154.413L87.9308 98.4027C88.042 97.9089 88.5337 97.5998 89.0253 97.708C89.517 97.8174 89.829 98.3078 89.7179 98.802L77.2385 154.811C77.0162 155.815 76.3707 156.677 75.4729 157.176C74.9342 157.474 74.3357 157.625 73.7329 157.625Z" fill="white"/>
<path d="M116.854 131.443C116.427 131.443 116.046 131.142 115.956 130.706L107.975 90.5698C107.876 90.0735 108.201 89.5908 108.697 89.4916C109.197 89.3937 109.676 89.7156 109.774 90.2124L117.756 130.348C117.855 130.845 117.53 131.327 117.034 131.425C116.974 131.438 116.914 131.443 116.854 131.443Z" fill="white"/>
<path d="M120.112 84.7009C120.223 85.7915 118.645 86.5063 117.636 87.1202C116.576 87.762 106.675 93.6921 102.81 96.0383C98.9025 98.4124 94.9992 100.777 91.096 103.151C90.1426 103.728 89.1636 104.251 88.2444 104.892C87.3766 105.497 86.7695 105.973 85.7178 106.239C83.6999 106.743 81.3699 105.543 79.5572 104.855C79.0271 104.653 78.668 104.14 78.668 103.563V103.37C78.668 103.288 78.6765 103.215 78.6851 103.141C78.6936 103.104 78.7022 103.068 78.715 103.031C78.7791 102.765 78.9245 102.518 79.134 102.334C79.1725 102.298 79.2066 102.271 79.2451 102.252C79.2836 102.216 79.3178 102.188 79.3563 102.17C81.6392 100.85 83.9179 99.5303 86.2009 98.2195C90.9207 95.4975 95.6405 92.7755 100.352 90.0535C104.477 87.6705 108.765 85.4619 112.78 82.9045C113.43 82.5013 114.054 81.9789 114.853 81.8964C115.896 81.7955 117.273 82.2995 118.244 82.7027C119.013 83.0233 119.453 83.2619 119.701 83.5462C119.919 83.7843 120.014 84.0408 120.065 84.3892C120.086 84.4901 120.103 84.5906 120.112 84.7009Z" fill="white"/>
<path d="M76.2905 101.16L72.4214 93.2055C71.126 90.2014 68.0051 88.4092 64.7602 88.8038L52.298 89.7803C49.9808 90.062 48.7239 92.8054 49.2754 95.0751L51.802 105.467C52.422 108.028 54.5083 109.801 57.099 110.278L57.5736 110.365C58.7364 110.677 60.5962 110.736 63.3152 111.91C64.7902 112.547 65.9829 113.358 66.8465 114.546C67.1415 114.565 67.3424 114.658 67.6417 114.623C68.33 114.544 69.0055 114.342 69.681 114.146L69.6297 113.995C69.5655 113.624 69.4929 112.651 70.1213 111.471C70.5403 110.691 71.5663 109.92 72.2974 109.439L72.4898 109.332C76.346 107.614 77.7056 104.45 76.2905 101.16Z" fill="#201E33"/>
<path d="M65.2078 87.6959L53.0448 89.1738C50.7234 89.4556 49.1715 91.6975 49.723 93.9668L52.2496 104.359C52.8695 106.919 54.9387 108.875 57.5295 109.352L67.5934 111.203L72.9374 108.225C76.7936 106.506 77.6615 103.223 76.2464 99.9333L72.869 92.0977C71.5736 89.0935 68.4526 87.3009 65.2078 87.6959Z" fill="#FFA6CE"/>
<path d="M71.7712 119.73C71.5702 120.133 71.2026 120.463 70.7323 120.619C70.5399 120.683 70.339 120.711 70.1466 120.711C69.7533 120.711 69.3771 120.582 69.065 120.353C68.7914 120.151 68.5605 119.867 68.4451 119.519C68.4237 119.501 68.4237 119.483 68.4151 119.464L65.2087 109.878C64.8881 108.915 65.4011 107.879 66.363 107.559C67.3249 107.238 68.3596 107.751 68.6802 108.713L71.8909 118.3C71.9165 118.383 71.9336 118.465 71.955 118.548C72.0277 118.96 71.9635 119.373 71.7712 119.73Z" fill="#FFA6CE"/>
<path d="M66.5422 113.896C66.5422 113.896 66.0462 112.083 63.6008 111.109C61.4846 110.265 57.4531 109.295 57.4531 109.295L60.0695 107.767L65.7598 107.958L67.4015 108.722L66.5422 113.896Z" fill="#FFA6CE"/>
<path d="M70.1122 113.057C70.1122 113.057 69.7658 111.874 70.5696 110.365C71.2493 109.095 73.5494 107.844 73.5494 107.844L69.4239 108.112L67.7266 109.525L70.1122 113.057Z" fill="#FFA6CE"/>
<path d="M74.3751 104.984C74.0972 105.084 73.4474 105.231 72.5581 105.405C71.4594 105.616 70.0015 105.872 68.4154 106.129C68.0691 106.184 67.7186 106.239 67.3637 106.294C67.0602 106.349 66.7481 106.395 66.436 106.432C62.5755 107.036 58.5996 107.559 57.7403 107.541C56.0601 107.504 54.1106 105.936 53.8071 104.406C53.5035 102.875 51.0196 94.8556 50.8657 92.986C50.8187 92.4546 50.9384 91.9869 51.1308 91.5838C51.5883 90.6398 52.5501 90.0438 53.5976 89.925C55.1153 89.7416 58.031 89.4026 60.5234 89.1277C60.844 89.0815 61.1561 89.0451 61.4597 89.0088C61.7889 88.981 62.101 88.9442 62.396 88.9075C63.3023 88.807 64.0547 88.7241 64.5036 88.6783C64.9867 88.6236 65.4912 88.5962 65.9785 88.5962C67.7186 88.6146 69.4073 89.0999 70.5316 90.7317C71.9809 92.8394 73.8962 97.1928 74.8881 99.8234C75.8757 102.463 76.0852 104.342 74.3751 104.984Z" fill="white"/>
<path d="M67.3638 106.294C67.0602 106.349 66.7482 106.395 66.4361 106.432L60.5234 89.1277C60.8441 89.0816 61.1562 89.0452 61.4597 89.0089L67.3638 106.294Z" fill="#FF870E"/>
<path d="M71.9552 118.548C71.3866 118.099 70.6342 117.934 69.8903 118.236C69.249 118.493 68.7446 118.952 68.4453 119.52C68.5607 119.868 68.7916 120.152 69.0652 120.354C69.4243 119.171 71.0275 118.411 71.7714 119.731C71.9638 119.373 72.0279 118.961 71.9552 118.548Z" fill="#201E33"/>
<path d="M72.5567 105.405C71.4579 105.616 70.0001 105.872 68.414 106.129L62.3945 88.9075C63.3009 88.807 64.0533 88.7241 64.5022 88.6784C64.9853 88.6236 65.4897 88.5963 65.9771 88.5963L72.5567 105.405Z" fill="#FF870E"/>
<path d="M86.2004 160.404C86.2004 161.247 85.9525 162.035 85.525 162.696C85.2685 163.117 84.9179 163.484 84.5246 163.777V163.786C83.8192 164.318 82.93 164.639 81.9766 164.639C79.7407 164.639 77.898 162.897 77.7527 160.688C77.7441 160.597 77.7441 160.505 77.7441 160.404C77.7441 159.983 77.8083 159.588 77.9151 159.204C78.4282 157.453 80.0528 156.179 81.9766 156.179C82.5837 156.179 83.1694 156.307 83.6909 156.546C84.1569 156.747 84.5716 157.031 84.9265 157.379C85.7174 158.15 86.2004 159.222 86.2004 160.404Z" fill="#FF8F17"/>
<path d="M83.5489 160.385C83.5489 160.805 83.2112 161.145 82.7923 161.145C82.3733 161.145 82.0312 160.805 82.0312 160.385C82.0312 159.966 82.3733 159.626 82.7923 159.626C83.2112 159.626 83.5489 159.966 83.5489 160.385Z" fill="#201E33"/>
<path d="M84.9255 157.38C84.8186 157.637 84.5536 157.82 84.2415 157.82C83.8182 157.82 83.4805 157.481 83.4805 157.069C83.4805 156.867 83.5617 156.684 83.69 156.546C84.156 156.748 84.5707 157.032 84.9255 157.38Z" fill="#201E33"/>
<path d="M85.5252 162.696C85.2686 163.118 84.9181 163.484 84.5247 163.777C84.4435 163.658 84.3965 163.521 84.3965 163.365C84.3965 162.944 84.7343 162.604 85.1575 162.604C85.2943 162.604 85.414 162.641 85.5252 162.696Z" fill="#201E33"/>
<path d="M81.3302 157.847C81.3302 158.266 80.9881 158.605 80.5692 158.605C80.1502 158.605 79.8125 158.266 79.8125 157.847C79.8125 157.428 80.1502 157.088 80.5692 157.088C80.9881 157.088 81.3302 157.428 81.3302 157.847Z" fill="#201E33"/>
<path d="M78.4923 159.936C78.4923 160.339 78.1631 160.678 77.7527 160.688C77.7441 160.596 77.7441 160.504 77.7441 160.403C77.7441 159.982 77.8083 159.587 77.9151 159.203C78.2486 159.276 78.4923 159.579 78.4923 159.936Z" fill="#201E33"/>
<path d="M81.2833 163.165C81.2833 163.584 80.9414 163.924 80.5224 163.924C80.1034 163.924 79.7656 163.584 79.7656 163.165C79.7656 162.746 80.1034 162.406 80.5224 162.406C80.9414 162.406 81.2833 162.746 81.2833 163.165Z" fill="#201E33"/>
<path d="M82.9132 173.519C83.3578 172.805 83.9862 172.269 84.7044 171.938C85.1448 171.717 85.6322 171.591 86.1238 171.552L86.1281 171.544C87.0088 171.468 87.9322 171.668 88.7402 172.174C90.6341 173.362 91.2712 175.816 90.2238 177.766C90.181 177.848 90.134 177.925 90.0784 178.011C89.8561 178.37 89.591 178.669 89.296 178.934C87.9322 180.148 85.8801 180.366 84.247 179.344C83.734 179.024 83.3064 178.601 82.9901 178.122C82.6994 177.703 82.5027 177.244 82.383 176.759C82.1265 175.688 82.2847 174.521 82.9132 173.519Z" fill="#FF8F17"/>
<path d="M85.1472 174.941C85.3695 174.586 85.8355 174.478 86.1946 174.701C86.5495 174.924 86.6563 175.392 86.434 175.747C86.2117 176.102 85.7414 176.21 85.3866 175.988C85.0317 175.765 84.9249 175.297 85.1472 174.941Z" fill="#201E33"/>
<path d="M82.3828 176.758C82.6137 176.599 82.9386 176.585 83.1994 176.75C83.5585 176.974 83.6654 177.441 83.4474 177.791C83.3405 177.963 83.1737 178.074 82.9899 178.121C82.6991 177.703 82.5025 177.243 82.3828 176.758Z" fill="#201E33"/>
<path d="M84.7031 171.937C85.1435 171.716 85.6309 171.59 86.1225 171.551C86.1268 171.696 86.0926 171.837 86.0114 171.968C85.7891 172.326 85.3188 172.433 84.964 172.21C84.8485 172.136 84.7673 172.042 84.7031 171.937Z" fill="#201E33"/>
<path d="M85.6772 178.27C85.9038 177.915 86.3698 177.809 86.7247 178.031C87.0795 178.253 87.1864 178.723 86.9641 179.078C86.7417 179.433 86.2757 179.54 85.9209 179.318C85.566 179.095 85.4549 178.625 85.6772 178.27Z" fill="#201E33"/>
<path d="M89.1916 178.006C89.4054 177.666 89.8672 177.554 90.222 177.765C90.1793 177.847 90.1322 177.925 90.0766 178.01C89.8543 178.369 89.5892 178.669 89.2942 178.934C89.0506 178.698 89.0035 178.309 89.1916 178.006Z" fill="#201E33"/>
<path d="M88.5435 173.791C88.7658 173.436 89.2361 173.328 89.5909 173.551C89.9458 173.773 90.0526 174.242 89.8303 174.597C89.608 174.952 89.142 175.06 88.7871 174.837C88.428 174.615 88.3212 174.146 88.5435 173.791Z" fill="#201E33"/>
<path d="M116.926 168.645C117.597 169.154 118.076 169.827 118.341 170.569C118.525 171.028 118.606 171.527 118.602 172.019L118.606 172.024C118.606 172.908 118.324 173.81 117.747 174.57C116.4 176.352 113.899 176.769 112.048 175.552C111.971 175.504 111.899 175.449 111.817 175.387C111.48 175.133 111.206 174.844 110.967 174.524C109.881 173.057 109.842 170.995 111.005 169.461C111.373 168.979 111.83 168.589 112.335 168.316C112.775 168.065 113.254 167.908 113.746 167.834C114.836 167.671 115.986 167.931 116.926 168.645Z" fill="#FF8F17"/>
<path d="M115.31 170.747C115.643 171.001 115.712 171.476 115.455 171.811C115.203 172.145 114.729 172.21 114.395 171.957C114.057 171.704 113.993 171.228 114.245 170.894C114.502 170.56 114.977 170.494 115.31 170.747Z" fill="#201E33"/>
<path d="M113.745 167.832C113.882 168.075 113.869 168.398 113.681 168.646C113.424 168.982 112.95 169.047 112.62 168.798C112.462 168.677 112.364 168.5 112.334 168.315C112.774 168.064 113.253 167.907 113.745 167.832Z" fill="#201E33"/>
<path d="M118.341 170.568C118.525 171.027 118.606 171.526 118.602 172.018C118.457 172.011 118.32 171.964 118.196 171.871C117.858 171.616 117.794 171.141 118.046 170.805C118.132 170.695 118.23 170.622 118.341 170.568Z" fill="#201E33"/>
<path d="M111.945 170.982C112.278 171.235 112.347 171.711 112.09 172.045C111.838 172.379 111.363 172.445 111.03 172.192C110.692 171.939 110.628 171.462 110.88 171.128C111.137 170.794 111.611 170.729 111.945 170.982Z" fill="#201E33"/>
<path d="M111.899 174.505C112.219 174.749 112.292 175.217 112.048 175.551C111.972 175.503 111.899 175.448 111.818 175.387C111.48 175.132 111.206 174.843 110.967 174.523C111.223 174.304 111.612 174.29 111.899 174.505Z" fill="#201E33"/>
<path d="M116.156 174.232C116.489 174.485 116.554 174.961 116.301 175.295C116.049 175.629 115.57 175.695 115.237 175.442C114.903 175.189 114.839 174.712 115.091 174.378C115.344 174.044 115.823 173.979 116.156 174.232Z" fill="#201E33"/>
<path d="M143.29 122.005C143.282 125.698 142.978 132.536 142.824 136.486C142.713 139.391 141.465 141.124 139.246 143.002C139.109 143.112 138.972 143.232 138.827 143.351C138.579 143.552 138.322 143.763 138.057 143.974C137.361 144.542 136.608 145.147 135.8 145.789C135.556 145.981 135.296 146.183 135.031 146.384C131.465 149.171 127.122 152.433 123.034 155.357C122.778 155.541 122.513 155.733 122.256 155.907C121.478 156.466 120.717 157.007 119.973 157.52C119.708 157.703 119.452 157.887 119.195 158.052C117.464 159.252 114.886 160.847 113.338 161.846C112.192 162.589 111.064 162.982 109.918 163.093C109.619 163.13 109.315 163.148 109.003 163.13C107.819 163.111 106.6 162.808 105.309 162.304C102.954 161.388 100.038 159.876 97.9603 158.748C96.2246 157.804 95.0617 156.054 94.9078 154.093V154.056C94.7496 152.058 94.6598 150.059 94.5572 148.062C94.4589 146.155 94.3649 144.248 94.2665 142.352C94.1083 139.529 94.1297 136.733 95.2285 134.378C95.3567 134.103 95.4935 133.837 95.6602 133.572C96.263 132.563 97.1138 131.656 98.2895 130.877C99.5079 130.061 100.406 129.291 101.624 128.476C104.685 126.45 107.738 124.424 110.807 122.399C114.373 120.044 121.064 115.873 124.71 113.609C126.433 112.538 128.498 112.17 130.486 112.574C131.593 112.794 132.859 113.087 134.026 113.463C134.069 113.482 134.116 113.491 134.163 113.509C135.214 113.848 136.288 114.242 137.314 114.636C137.361 114.645 137.395 114.664 137.442 114.682C138.028 114.911 138.635 115.186 139.229 115.479C140.375 116.048 141.337 116.9 142.033 117.926C142.209 118.174 142.363 118.439 142.491 118.715C143.017 119.713 143.29 120.841 143.29 122.005Z" fill="#FAD6BB"/>
<path d="M137.313 114.636L105.207 135.019C103.249 136.266 102.103 138.484 102.24 140.811L102.671 149.317C102.706 150.077 99.9567 149.381 99.9182 148.648L99.4907 140.967C99.3069 137.65 100.927 134.478 103.74 132.691L134.026 113.463C134.069 113.481 134.116 113.49 134.163 113.509C134.445 113.6 134.74 113.701 135.031 113.802C135.398 113.921 135.766 114.058 136.121 114.187C136.527 114.333 136.92 114.489 137.313 114.636Z" fill="white"/>
<path d="M136.122 114.186L104.652 134.157C101.634 136.302 101.386 137.97 101.386 139.766L101.698 148.418C101.698 148.675 101.505 148.886 101.249 148.895H101.24C100.992 148.895 100.783 148.702 100.783 148.455L100.471 139.784C100.471 137.383 101.074 135.577 104.139 133.396L135.031 113.801C135.399 113.92 135.767 114.058 136.122 114.186Z" fill="#201E33"/>
<path d="M109.653 139.409L109.307 140.252L95.2285 134.377C95.3568 134.102 95.4936 133.836 95.6603 133.571L109.653 139.409Z" fill="#201E33"/>
<path d="M138.751 167.082C134.976 167.082 130.992 166.244 127.674 164.738C124.404 163.254 121.792 160.917 120.317 158.155C118.56 154.869 118.111 150.987 117.752 147.868C117.418 144.99 117.298 142.218 117.388 139.626L120.137 139.725C120.047 142.179 120.167 144.812 120.483 147.552C120.817 150.44 121.232 154.035 122.741 156.86C123.934 159.091 126.088 160.999 128.807 162.234C132.044 163.701 135.981 164.457 139.636 164.314C142.518 164.199 146.036 163.73 147.704 161.105C148.431 159.959 148.563 158.45 148.037 157.351C147.37 155.969 145.647 155.109 144.13 154.35C141.462 153.019 138.722 151.464 137.024 148.411C132.587 140.419 133.848 133.676 133.903 133.393L136.601 133.927C136.592 133.982 135.502 140.009 139.427 147.076C140.744 149.444 142.984 150.704 145.357 151.89C147.178 152.799 149.439 153.929 150.513 156.158C151.453 158.11 151.261 160.63 150.025 162.579C147.674 166.282 143.3 166.92 139.748 167.062C139.418 167.074 139.085 167.082 138.751 167.082Z" fill="#FAD6BB"/>
<path d="M119.975 157.519C119.71 157.702 119.453 157.886 119.197 158.051C117.324 153.587 116.794 148.665 116.456 143.799C116.418 143.203 117.337 143.212 117.371 143.799C117.692 148.491 118.196 153.221 119.975 157.519Z" fill="#201E33"/>
<path d="M123.034 155.356C122.778 155.54 122.513 155.732 122.256 155.906C120.516 151.553 120.012 146.787 119.691 142.058C119.644 141.471 120.559 141.471 120.606 142.058C120.918 146.603 121.393 151.168 123.034 155.356Z" fill="#201E33"/>
<path d="M135.8 145.787C135.556 145.979 135.296 146.181 135.03 146.383C133.521 142.24 133.051 137.74 132.752 133.295C132.705 132.699 133.62 132.708 133.667 133.295C133.957 137.548 134.398 141.828 135.8 145.787Z" fill="#201E33"/>
<path d="M138.827 143.349C138.579 143.551 138.323 143.762 138.058 143.973C136.69 139.968 136.249 135.669 135.959 131.398C135.912 130.811 136.827 130.82 136.874 131.398C137.152 135.458 137.562 139.537 138.827 143.349Z" fill="#201E33"/>
<path d="M116.191 141.616L116.319 143.632L120.539 140.685V138.691L116.191 141.616ZM115.909 144.934C115.84 144.934 115.776 144.919 115.712 144.888C115.562 144.816 115.464 144.669 115.451 144.504L115.263 141.411C115.25 141.248 115.327 141.093 115.464 141.002L120.744 137.45C120.885 137.355 121.065 137.347 121.214 137.426C121.364 137.506 121.458 137.661 121.458 137.831V140.924C121.458 141.074 121.385 141.214 121.261 141.3L116.174 144.852C116.097 144.906 116.003 144.934 115.909 144.934Z" fill="#201E33"/>
<path d="M132.201 131.33L132.329 133.356L136.625 130.38L136.553 128.317L132.201 131.33ZM131.918 134.652C131.854 134.652 131.782 134.637 131.722 134.607C131.572 134.534 131.474 134.388 131.461 134.223L131.273 131.13C131.26 130.969 131.337 130.816 131.465 130.724L136.72 127.087C136.856 126.992 137.036 126.979 137.186 127.054C137.335 127.129 137.433 127.279 137.438 127.446L137.553 130.597C137.557 130.754 137.485 130.903 137.357 130.991L132.179 134.571C132.102 134.625 132.012 134.652 131.918 134.652Z" fill="#201E33"/>
<path d="M142.492 118.715L112.424 137.448C110.269 138.796 109.021 141.206 109.179 143.745L109.919 163.093C109.62 163.13 109.316 163.148 109.004 163.13L108.26 143.791C108.089 140.931 109.5 138.2 111.945 136.678L142.034 117.926C142.209 118.174 142.363 118.439 142.492 118.715Z" fill="#201E33"/>
<path d="M120.065 84.3909L87.5389 103.794C86.5214 104.39 85.3756 104.701 84.2299 104.701C83.5245 104.701 82.819 104.582 82.1393 104.353L78.7148 103.033C78.779 102.767 78.9244 102.52 79.1338 102.336C79.1723 102.3 79.2065 102.272 79.245 102.254L82.4514 103.491C83.9734 104.005 85.6706 103.83 87.0729 103.006L119.701 83.5479C119.919 83.786 120.013 84.0425 120.065 84.3909Z" fill="#2B2945"/>
</svg>
